<mxfile host="app.diagrams.net" modified="2022-10-10T18:34:15.978Z" agent="5.0 (Macintosh; Intel Mac OS X 10_15_7) AppleWebKit/605.1.15 (KHTML, like Gecko) Version/16.0 Safari/605.1.15" etag="aHrH5tIKs2AVT-3RigwT" version="20.4.0" type="github" pages="4">
  <diagram id="GWEQFwlPGYUZvqcBuTwU" name="Overview">
    <mxGraphModel dx="1426" dy="920" grid="1" gridSize="10" guides="1" tooltips="1" connect="1" arrows="1" fold="1" page="1" pageScale="1" pageWidth="827" pageHeight="1169" math="0" shadow="0">
      <root>
        <mxCell id="0" />
        <mxCell id="1" parent="0" />
        <mxCell id="pUCuicpXGW8I_dIh1eWN-49" style="edgeStyle=orthogonalEdgeStyle;orthogonalLoop=1;jettySize=auto;html=1;exitX=0.5;exitY=1;exitDx=0;exitDy=0;entryX=0.5;entryY=1;entryDx=0;entryDy=0;entryPerimeter=0;labelBackgroundColor=#ffffff;fontSize=7;rounded=0;" parent="1" source="pUCuicpXGW8I_dIh1eWN-1" target="pUCuicpXGW8I_dIh1eWN-4" edge="1">
          <mxGeometry relative="1" as="geometry">
            <Array as="points">
              <mxPoint x="310" y="190" />
              <mxPoint x="450" y="190" />
            </Array>
          </mxGeometry>
        </mxCell>
        <mxCell id="pUCuicpXGW8I_dIh1eWN-1" value="KGE &lt;br&gt;Model" style="html=1;dashed=0;whitespace=wrap;" parent="1" vertex="1">
          <mxGeometry x="290" y="105" width="40" height="60" as="geometry" />
        </mxCell>
        <mxCell id="ovzLXl8YrXXY1dBJyhBM-1" style="edgeStyle=orthogonalEdgeStyle;orthogonalLoop=1;jettySize=auto;html=1;exitX=0.5;exitY=1;exitDx=0;exitDy=0;entryX=0.5;entryY=1;entryDx=0;entryDy=0;entryPerimeter=0;rounded=0;" parent="1" source="pUCuicpXGW8I_dIh1eWN-2" target="pUCuicpXGW8I_dIh1eWN-4" edge="1">
          <mxGeometry relative="1" as="geometry">
            <Array as="points">
              <mxPoint x="380" y="190" />
              <mxPoint x="450" y="190" />
            </Array>
          </mxGeometry>
        </mxCell>
        <mxCell id="pUCuicpXGW8I_dIh1eWN-2" value="Reasoner" style="html=1;dashed=0;whitespace=wrap;" parent="1" vertex="1">
          <mxGeometry x="350" y="105" width="60" height="60" as="geometry" />
        </mxCell>
        <mxCell id="pUCuicpXGW8I_dIh1eWN-3" value="&lt;font style=&quot;font-size: 10px;&quot;&gt;Data&lt;/font&gt;" style="shape=cylinder3;whiteSpace=wrap;html=1;boundedLbl=1;backgroundOutline=1;size=10;fontSize=7;spacingTop=-6;" parent="1" vertex="1">
          <mxGeometry x="330" y="25" width="40" height="40" as="geometry" />
        </mxCell>
        <mxCell id="pUCuicpXGW8I_dIh1eWN-31" style="edgeStyle=orthogonalEdgeStyle;rounded=0;orthogonalLoop=1;jettySize=auto;html=1;exitX=0.5;exitY=0;exitDx=0;exitDy=0;exitPerimeter=0;entryX=0.5;entryY=1;entryDx=0;entryDy=0;" parent="1" source="pUCuicpXGW8I_dIh1eWN-4" target="pUCuicpXGW8I_dIh1eWN-25" edge="1">
          <mxGeometry relative="1" as="geometry" />
        </mxCell>
        <mxCell id="pUCuicpXGW8I_dIh1eWN-4" value="&lt;font style=&quot;font-size: 8px;&quot;&gt;Generated&lt;br style=&quot;font-size: 8px;&quot;&gt;Data&lt;/font&gt;" style="shape=cylinder3;whiteSpace=wrap;html=1;boundedLbl=1;backgroundOutline=1;size=9;fontSize=8;" parent="1" vertex="1">
          <mxGeometry x="430" y="130" width="40" height="40" as="geometry" />
        </mxCell>
        <mxCell id="pUCuicpXGW8I_dIh1eWN-18" style="edgeStyle=orthogonalEdgeStyle;orthogonalLoop=1;jettySize=auto;html=1;entryX=0.5;entryY=0;entryDx=0;entryDy=0;rounded=0;exitX=0.5;exitY=1;exitDx=0;exitDy=0;exitPerimeter=0;" parent="1" source="pUCuicpXGW8I_dIh1eWN-3" target="pUCuicpXGW8I_dIh1eWN-2" edge="1">
          <mxGeometry relative="1" as="geometry">
            <mxPoint x="350" y="80" as="sourcePoint" />
            <Array as="points">
              <mxPoint x="350" y="80" />
              <mxPoint x="380" y="80" />
            </Array>
          </mxGeometry>
        </mxCell>
        <mxCell id="pUCuicpXGW8I_dIh1eWN-19" style="edgeStyle=orthogonalEdgeStyle;orthogonalLoop=1;jettySize=auto;html=1;entryX=0.5;entryY=0;entryDx=0;entryDy=0;exitX=0.5;exitY=1;exitDx=0;exitDy=0;exitPerimeter=0;rounded=0;" parent="1" source="pUCuicpXGW8I_dIh1eWN-3" target="pUCuicpXGW8I_dIh1eWN-1" edge="1">
          <mxGeometry relative="1" as="geometry">
            <Array as="points">
              <mxPoint x="350" y="80" />
              <mxPoint x="310" y="80" />
            </Array>
            <mxPoint x="470" y="85" as="sourcePoint" />
          </mxGeometry>
        </mxCell>
        <mxCell id="pUCuicpXGW8I_dIh1eWN-32" style="edgeStyle=orthogonalEdgeStyle;orthogonalLoop=1;jettySize=auto;html=1;exitX=0.5;exitY=0;exitDx=0;exitDy=0;endArrow=none;endFill=0;entryX=0.5;entryY=0;entryDx=0;entryDy=0;entryPerimeter=0;rounded=0;" parent="1" source="pUCuicpXGW8I_dIh1eWN-25" target="pUCuicpXGW8I_dIh1eWN-3" edge="1">
          <mxGeometry relative="1" as="geometry">
            <mxPoint x="360" y="80" as="targetPoint" />
            <Array as="points">
              <mxPoint x="450" y="20" />
              <mxPoint x="350" y="20" />
            </Array>
          </mxGeometry>
        </mxCell>
        <mxCell id="pUCuicpXGW8I_dIh1eWN-38" value="&lt;font style=&quot;font-size: 7px;&quot;&gt;Rerun with new data&lt;/font&gt;" style="edgeLabel;html=1;align=left;verticalAlign=middle;resizable=0;points=[];labelBackgroundColor=none;labelPosition=right;verticalLabelPosition=middle;" parent="pUCuicpXGW8I_dIh1eWN-32" vertex="1" connectable="0">
          <mxGeometry x="-0.05" relative="1" as="geometry">
            <mxPoint x="-54" y="5" as="offset" />
          </mxGeometry>
        </mxCell>
        <mxCell id="pUCuicpXGW8I_dIh1eWN-48" value="End" style="edgeStyle=orthogonalEdgeStyle;rounded=0;orthogonalLoop=1;jettySize=auto;html=1;exitX=1;exitY=0.5;exitDx=0;exitDy=0;labelBackgroundColor=none;fontSize=7;labelPosition=center;verticalLabelPosition=bottom;align=center;verticalAlign=top;" parent="1" source="pUCuicpXGW8I_dIh1eWN-25" target="pUCuicpXGW8I_dIh1eWN-41" edge="1">
          <mxGeometry relative="1" as="geometry" />
        </mxCell>
        <mxCell id="pUCuicpXGW8I_dIh1eWN-25" value="&lt;font style=&quot;font-size: 9px;&quot;&gt;Probable triple?&lt;/font&gt;" style="shape=rhombus;html=1;verticalLabelPosition=middle;verticalAlignment=top;whiteSpace=wrap;verticalAlign=middle;labelPosition=center;align=center;fontSize=6;spacingTop=5;" parent="1" vertex="1">
          <mxGeometry x="426.25" y="65" width="47.5" height="50" as="geometry" />
        </mxCell>
        <mxCell id="pUCuicpXGW8I_dIh1eWN-41" value="" style="ellipse;html=1;shape=endState;fillColor=#000000;strokeColor=#ff0000;" parent="1" vertex="1">
          <mxGeometry x="490" y="75" width="30" height="30" as="geometry" />
        </mxCell>
        <mxCell id="G31SS7UadG_RTmPwpUZ2-1" value="&lt;font style=&quot;font-size: 7px;&quot;&gt;Run in Parallel&lt;/font&gt;" style="edgeLabel;html=1;align=left;verticalAlign=middle;resizable=0;points=[];labelBackgroundColor=none;labelPosition=right;verticalLabelPosition=middle;" parent="1" vertex="1" connectable="0">
          <mxGeometry x="290" y="90" as="geometry">
            <mxPoint x="30" y="1" as="offset" />
          </mxGeometry>
        </mxCell>
      </root>
    </mxGraphModel>
  </diagram>
  <diagram id="6idfUOIIav8E_FSrRSz_" name="KG-with-ontology">
    <mxGraphModel dx="1426" dy="920" grid="1" gridSize="10" guides="1" tooltips="1" connect="1" arrows="1" fold="1" page="1" pageScale="1" pageWidth="850" pageHeight="1100" math="0" shadow="0">
      <root>
        <mxCell id="0" />
        <mxCell id="1" parent="0" />
        <mxCell id="z6ZrJJEZSCs172L-g3rZ-15" value="Type" style="edgeStyle=none;rounded=0;orthogonalLoop=1;jettySize=auto;html=1;exitX=0.5;exitY=1;exitDx=0;exitDy=0;entryX=0.5;entryY=0;entryDx=0;entryDy=0;dashed=1;" parent="1" source="MAaf9H2sOSzmaDi1eTiB-11" target="z6ZrJJEZSCs172L-g3rZ-14" edge="1">
          <mxGeometry y="10" relative="1" as="geometry">
            <mxPoint as="offset" />
            <mxPoint x="750" y="740" as="sourcePoint" />
          </mxGeometry>
        </mxCell>
        <mxCell id="z6ZrJJEZSCs172L-g3rZ-14" value="Country" style="ellipse;whiteSpace=wrap;html=1;aspect=fixed;fillColor=none;dashed=1;" parent="1" vertex="1">
          <mxGeometry x="720" y="770" width="80" height="80" as="geometry" />
        </mxCell>
        <mxCell id="MAaf9H2sOSzmaDi1eTiB-1" value="InRelationshipWith" style="rounded=0;orthogonalLoop=1;jettySize=auto;html=1;exitX=0;exitY=1;exitDx=0;exitDy=0;entryX=1;entryY=0;entryDx=0;entryDy=0;labelBackgroundColor=none;" parent="1" source="MAaf9H2sOSzmaDi1eTiB-7" target="MAaf9H2sOSzmaDi1eTiB-9" edge="1">
          <mxGeometry x="-0.2187" y="2" relative="1" as="geometry">
            <mxPoint y="-1" as="offset" />
          </mxGeometry>
        </mxCell>
        <mxCell id="MAaf9H2sOSzmaDi1eTiB-2" style="edgeStyle=none;rounded=0;orthogonalLoop=1;jettySize=auto;html=1;exitX=1;exitY=0.5;exitDx=0;exitDy=0;entryX=0;entryY=0.5;entryDx=0;entryDy=0;align=center;" parent="1" source="MAaf9H2sOSzmaDi1eTiB-7" target="MAaf9H2sOSzmaDi1eTiB-10" edge="1">
          <mxGeometry relative="1" as="geometry" />
        </mxCell>
        <mxCell id="MAaf9H2sOSzmaDi1eTiB-3" value="FounderOf" style="edgeLabel;html=1;align=center;verticalAlign=middle;resizable=0;points=[];labelBackgroundColor=none;" parent="MAaf9H2sOSzmaDi1eTiB-2" vertex="1" connectable="0">
          <mxGeometry x="-0.3778" y="-2" relative="1" as="geometry">
            <mxPoint x="26" y="8" as="offset" />
          </mxGeometry>
        </mxCell>
        <mxCell id="MAaf9H2sOSzmaDi1eTiB-4" value="BornIn" style="edgeStyle=none;rounded=0;orthogonalLoop=1;jettySize=auto;html=1;exitX=1;exitY=1;exitDx=0;exitDy=0;labelBackgroundColor=none;" parent="1" source="MAaf9H2sOSzmaDi1eTiB-7" target="MAaf9H2sOSzmaDi1eTiB-11" edge="1">
          <mxGeometry relative="1" as="geometry" />
        </mxCell>
        <mxCell id="MAaf9H2sOSzmaDi1eTiB-5" style="rounded=0;orthogonalLoop=1;jettySize=auto;html=1;exitX=1;exitY=0;exitDx=0;exitDy=0;entryX=0;entryY=1;entryDx=0;entryDy=0;labelBackgroundColor=none;fontSize=11;endArrow=classic;endFill=1;" parent="1" source="MAaf9H2sOSzmaDi1eTiB-7" edge="1">
          <mxGeometry relative="1" as="geometry">
            <mxPoint x="751.7157287525379" y="498.28427124746213" as="targetPoint" />
          </mxGeometry>
        </mxCell>
        <mxCell id="MAaf9H2sOSzmaDi1eTiB-6" value="DegreeFrom" style="edgeLabel;html=1;align=center;verticalAlign=middle;resizable=0;points=[];fontSize=11;labelBackgroundColor=none;" parent="MAaf9H2sOSzmaDi1eTiB-5" vertex="1" connectable="0">
          <mxGeometry x="-0.0208" y="-2" relative="1" as="geometry">
            <mxPoint as="offset" />
          </mxGeometry>
        </mxCell>
        <mxCell id="MAaf9H2sOSzmaDi1eTiB-7" value="Elon" style="ellipse;whiteSpace=wrap;html=1;aspect=fixed;fillColor=none;fontStyle=1" parent="1" vertex="1">
          <mxGeometry x="600" y="540" width="80" height="80" as="geometry" />
        </mxCell>
        <mxCell id="MAaf9H2sOSzmaDi1eTiB-8" value="BornIn" style="edgeStyle=none;rounded=0;orthogonalLoop=1;jettySize=auto;html=1;exitX=0.5;exitY=1;exitDx=0;exitDy=0;entryX=0.5;entryY=0;entryDx=0;entryDy=0;labelBackgroundColor=none;fontSize=11;endArrow=classic;endFill=1;" parent="1" source="MAaf9H2sOSzmaDi1eTiB-9" target="MAaf9H2sOSzmaDi1eTiB-12" edge="1">
          <mxGeometry relative="1" as="geometry" />
        </mxCell>
        <mxCell id="MAaf9H2sOSzmaDi1eTiB-9" value="Grimes" style="ellipse;whiteSpace=wrap;html=1;aspect=fixed;fillColor=none;fontStyle=1" parent="1" vertex="1">
          <mxGeometry x="510" y="650" width="80" height="80" as="geometry" />
        </mxCell>
        <mxCell id="MAaf9H2sOSzmaDi1eTiB-10" value="SpaceX" style="ellipse;whiteSpace=wrap;html=1;aspect=fixed;fillColor=none;fontStyle=1" parent="1" vertex="1">
          <mxGeometry x="780" y="540" width="80" height="80" as="geometry" />
        </mxCell>
        <mxCell id="MAaf9H2sOSzmaDi1eTiB-11" value="SouthAfrica" style="ellipse;whiteSpace=wrap;html=1;aspect=fixed;fillColor=none;fontStyle=1" parent="1" vertex="1">
          <mxGeometry x="720" y="650" width="80" height="80" as="geometry" />
        </mxCell>
        <mxCell id="VE23u9rPAlwgb8pmO_TK-3" value="Type" style="edgeStyle=none;rounded=0;orthogonalLoop=1;jettySize=auto;html=1;exitX=1;exitY=0.5;exitDx=0;exitDy=0;entryX=0;entryY=0.5;entryDx=0;entryDy=0;labelBackgroundColor=none;fontSize=11;endArrow=classic;endFill=1;dashed=1;" parent="1" source="MAaf9H2sOSzmaDi1eTiB-12" target="z6ZrJJEZSCs172L-g3rZ-14" edge="1">
          <mxGeometry x="-0.0769" y="10" relative="1" as="geometry">
            <mxPoint as="offset" />
          </mxGeometry>
        </mxCell>
        <mxCell id="MAaf9H2sOSzmaDi1eTiB-12" value="Canada&amp;nbsp;" style="ellipse;whiteSpace=wrap;html=1;aspect=fixed;fillColor=none;fontStyle=1" parent="1" vertex="1">
          <mxGeometry x="510" y="770" width="80" height="80" as="geometry" />
        </mxCell>
        <mxCell id="VE23u9rPAlwgb8pmO_TK-1" value="University of Pennsylvania" style="ellipse;whiteSpace=wrap;html=1;aspect=fixed;fillColor=none;fontStyle=1" parent="1" vertex="1">
          <mxGeometry x="750" y="440" width="80" height="80" as="geometry" />
        </mxCell>
        <mxCell id="VE23u9rPAlwgb8pmO_TK-5" value="Type" style="edgeStyle=none;rounded=0;orthogonalLoop=1;jettySize=auto;html=1;exitX=0;exitY=0;exitDx=0;exitDy=0;entryX=1;entryY=1;entryDx=0;entryDy=0;labelBackgroundColor=none;dashed=1;" parent="1" source="MAaf9H2sOSzmaDi1eTiB-7" target="VE23u9rPAlwgb8pmO_TK-8" edge="1">
          <mxGeometry x="0.0806" y="-11" relative="1" as="geometry">
            <mxPoint x="559.14" y="505" as="sourcePoint" />
            <mxPoint as="offset" />
          </mxGeometry>
        </mxCell>
        <mxCell id="VE23u9rPAlwgb8pmO_TK-6" value="Type" style="edgeStyle=none;rounded=0;orthogonalLoop=1;jettySize=auto;html=1;exitX=0.5;exitY=0;exitDx=0;exitDy=0;labelBackgroundColor=none;dashed=1;" parent="1" source="MAaf9H2sOSzmaDi1eTiB-9" edge="1">
          <mxGeometry x="0.0909" y="-10" relative="1" as="geometry">
            <mxPoint x="550" y="540" as="targetPoint" />
            <mxPoint x="429.14" y="595" as="sourcePoint" />
            <mxPoint as="offset" />
          </mxGeometry>
        </mxCell>
        <mxCell id="VE23u9rPAlwgb8pmO_TK-8" value="Person" style="ellipse;whiteSpace=wrap;html=1;aspect=fixed;fillColor=none;dashed=1;" parent="1" vertex="1">
          <mxGeometry x="510" y="460" width="80" height="80" as="geometry" />
        </mxCell>
        <mxCell id="VE23u9rPAlwgb8pmO_TK-10" value="SubClassOf" style="edgeStyle=none;rounded=0;orthogonalLoop=1;jettySize=auto;html=1;exitX=0;exitY=0;exitDx=0;exitDy=0;entryX=1;entryY=0.5;entryDx=0;entryDy=0;labelBackgroundColor=none;dashed=1;" parent="1" source="VE23u9rPAlwgb8pmO_TK-1" target="VE23u9rPAlwgb8pmO_TK-11" edge="1">
          <mxGeometry x="-0.1535" y="-13" relative="1" as="geometry">
            <mxPoint x="971.7157287525379" y="431.71572875253787" as="sourcePoint" />
            <mxPoint as="offset" />
          </mxGeometry>
        </mxCell>
        <mxCell id="VE23u9rPAlwgb8pmO_TK-11" value="Academical&lt;br&gt;Institution" style="ellipse;whiteSpace=wrap;html=1;aspect=fixed;fillColor=none;dashed=1;" parent="1" vertex="1">
          <mxGeometry x="620" y="390" width="80" height="80" as="geometry" />
        </mxCell>
        <mxCell id="VE23u9rPAlwgb8pmO_TK-12" value="Type" style="edgeStyle=none;rounded=0;orthogonalLoop=1;jettySize=auto;html=1;exitX=0.763;exitY=0.95;exitDx=0;exitDy=0;labelBackgroundColor=none;dashed=1;exitPerimeter=0;" parent="1" source="MAaf9H2sOSzmaDi1eTiB-10" target="VE23u9rPAlwgb8pmO_TK-13" edge="1">
          <mxGeometry x="0.1146" y="-17" relative="1" as="geometry">
            <mxPoint x="961.7157287525379" y="711.7157287525379" as="sourcePoint" />
            <mxPoint as="offset" />
          </mxGeometry>
        </mxCell>
        <mxCell id="VE23u9rPAlwgb8pmO_TK-13" value="&amp;nbsp;Aerospace company" style="ellipse;whiteSpace=wrap;html=1;aspect=fixed;fillColor=none;dashed=1;" parent="1" vertex="1">
          <mxGeometry x="820" y="650" width="80" height="80" as="geometry" />
        </mxCell>
        <mxCell id="VE23u9rPAlwgb8pmO_TK-16" value="SubClassOf" style="edgeStyle=none;rounded=0;orthogonalLoop=1;jettySize=auto;html=1;exitX=0.5;exitY=1;exitDx=0;exitDy=0;entryX=0.5;entryY=0;entryDx=0;entryDy=0;labelBackgroundColor=none;dashed=1;" parent="1" source="VE23u9rPAlwgb8pmO_TK-13" target="VE23u9rPAlwgb8pmO_TK-17" edge="1">
          <mxGeometry x="-0.1535" y="-13" relative="1" as="geometry">
            <mxPoint x="971.7157287525379" y="831.7157287525379" as="sourcePoint" />
            <mxPoint as="offset" />
          </mxGeometry>
        </mxCell>
        <mxCell id="VE23u9rPAlwgb8pmO_TK-17" value="Company" style="ellipse;whiteSpace=wrap;html=1;aspect=fixed;fillColor=none;dashed=1;" parent="1" vertex="1">
          <mxGeometry x="820" y="770" width="80" height="80" as="geometry" />
        </mxCell>
      </root>
    </mxGraphModel>
  </diagram>
  <diagram id="2pcbwbh4JfOaf1mFAffk" name="KG-Simple">
    <mxGraphModel dx="1426" dy="920" grid="1" gridSize="10" guides="1" tooltips="1" connect="1" arrows="1" fold="1" page="1" pageScale="1" pageWidth="1169" pageHeight="827" math="0" shadow="0">
      <root>
        <mxCell id="0" />
        <mxCell id="1" parent="0" />
        <mxCell id="WeycxaRJ_QNLsDLZlxfF-3" value="InRelationshipWith" style="rounded=0;orthogonalLoop=1;jettySize=auto;html=1;exitX=0;exitY=1;exitDx=0;exitDy=0;entryX=1;entryY=0;entryDx=0;entryDy=0;labelBackgroundColor=none;" parent="1" source="WeycxaRJ_QNLsDLZlxfF-9" target="WeycxaRJ_QNLsDLZlxfF-11" edge="1">
          <mxGeometry x="-0.2187" y="2" relative="1" as="geometry">
            <mxPoint y="-1" as="offset" />
          </mxGeometry>
        </mxCell>
        <mxCell id="WeycxaRJ_QNLsDLZlxfF-4" style="edgeStyle=none;rounded=0;orthogonalLoop=1;jettySize=auto;html=1;exitX=1;exitY=0.5;exitDx=0;exitDy=0;entryX=0;entryY=0.5;entryDx=0;entryDy=0;align=center;" parent="1" source="WeycxaRJ_QNLsDLZlxfF-9" target="WeycxaRJ_QNLsDLZlxfF-12" edge="1">
          <mxGeometry relative="1" as="geometry" />
        </mxCell>
        <mxCell id="WeycxaRJ_QNLsDLZlxfF-5" value="FounderOf" style="edgeLabel;html=1;align=center;verticalAlign=middle;resizable=0;points=[];labelBackgroundColor=none;" parent="WeycxaRJ_QNLsDLZlxfF-4" vertex="1" connectable="0">
          <mxGeometry x="-0.3778" y="-2" relative="1" as="geometry">
            <mxPoint x="26" y="8" as="offset" />
          </mxGeometry>
        </mxCell>
        <mxCell id="WeycxaRJ_QNLsDLZlxfF-6" value="BornIn" style="edgeStyle=none;rounded=0;orthogonalLoop=1;jettySize=auto;html=1;exitX=1;exitY=1;exitDx=0;exitDy=0;labelBackgroundColor=none;" parent="1" source="WeycxaRJ_QNLsDLZlxfF-9" target="WeycxaRJ_QNLsDLZlxfF-13" edge="1">
          <mxGeometry relative="1" as="geometry" />
        </mxCell>
        <mxCell id="WeycxaRJ_QNLsDLZlxfF-7" style="rounded=0;orthogonalLoop=1;jettySize=auto;html=1;exitX=1;exitY=0;exitDx=0;exitDy=0;entryX=0;entryY=1;entryDx=0;entryDy=0;labelBackgroundColor=none;fontSize=11;endArrow=classic;endFill=1;" parent="1" source="WeycxaRJ_QNLsDLZlxfF-9" edge="1">
          <mxGeometry relative="1" as="geometry">
            <mxPoint x="751.7157287525379" y="498.28427124746213" as="targetPoint" />
          </mxGeometry>
        </mxCell>
        <mxCell id="WeycxaRJ_QNLsDLZlxfF-8" value="DegreeFrom" style="edgeLabel;html=1;align=center;verticalAlign=middle;resizable=0;points=[];fontSize=11;labelBackgroundColor=none;" parent="WeycxaRJ_QNLsDLZlxfF-7" vertex="1" connectable="0">
          <mxGeometry x="-0.0208" y="-2" relative="1" as="geometry">
            <mxPoint as="offset" />
          </mxGeometry>
        </mxCell>
        <mxCell id="WeycxaRJ_QNLsDLZlxfF-9" value="Elon" style="ellipse;whiteSpace=wrap;html=1;aspect=fixed;fillColor=none;fontStyle=1" parent="1" vertex="1">
          <mxGeometry x="600" y="540" width="80" height="80" as="geometry" />
        </mxCell>
        <mxCell id="WeycxaRJ_QNLsDLZlxfF-10" value="BornIn" style="edgeStyle=none;rounded=0;orthogonalLoop=1;jettySize=auto;html=1;exitX=0.5;exitY=1;exitDx=0;exitDy=0;entryX=0.5;entryY=0;entryDx=0;entryDy=0;labelBackgroundColor=none;fontSize=11;endArrow=classic;endFill=1;" parent="1" source="WeycxaRJ_QNLsDLZlxfF-11" target="WeycxaRJ_QNLsDLZlxfF-15" edge="1">
          <mxGeometry relative="1" as="geometry" />
        </mxCell>
        <mxCell id="WeycxaRJ_QNLsDLZlxfF-11" value="Grimes" style="ellipse;whiteSpace=wrap;html=1;aspect=fixed;fillColor=none;fontStyle=1" parent="1" vertex="1">
          <mxGeometry x="510" y="650" width="80" height="80" as="geometry" />
        </mxCell>
        <mxCell id="WeycxaRJ_QNLsDLZlxfF-12" value="SpaceX" style="ellipse;whiteSpace=wrap;html=1;aspect=fixed;fillColor=none;fontStyle=1" parent="1" vertex="1">
          <mxGeometry x="780" y="540" width="80" height="80" as="geometry" />
        </mxCell>
        <mxCell id="WeycxaRJ_QNLsDLZlxfF-13" value="SouthAfrica" style="ellipse;whiteSpace=wrap;html=1;aspect=fixed;fillColor=none;fontStyle=1" parent="1" vertex="1">
          <mxGeometry x="720" y="650" width="80" height="80" as="geometry" />
        </mxCell>
        <mxCell id="WeycxaRJ_QNLsDLZlxfF-15" value="Canada&amp;nbsp;" style="ellipse;whiteSpace=wrap;html=1;aspect=fixed;fillColor=none;fontStyle=1" parent="1" vertex="1">
          <mxGeometry x="510" y="770" width="80" height="80" as="geometry" />
        </mxCell>
        <mxCell id="WeycxaRJ_QNLsDLZlxfF-16" value="University of Pennsylvania" style="ellipse;whiteSpace=wrap;html=1;aspect=fixed;fillColor=none;fontStyle=1" parent="1" vertex="1">
          <mxGeometry x="750" y="440" width="80" height="80" as="geometry" />
        </mxCell>
      </root>
    </mxGraphModel>
  </diagram>
  <diagram id="RmxdTGLufUpEepgVglPx" name="Detailed">
    <mxGraphModel dx="1426" dy="920" grid="1" gridSize="10" guides="1" tooltips="1" connect="1" arrows="1" fold="1" page="1" pageScale="1" pageWidth="1169" pageHeight="827" background="none" math="0" shadow="0">
      <root>
        <mxCell id="0" />
        <mxCell id="1" parent="0" />
        <mxCell id="txLwpJOkY1SSK1hxxeXu-55" style="edgeStyle=orthogonalEdgeStyle;rounded=1;orthogonalLoop=1;jettySize=auto;html=1;exitX=1;exitY=0.5;exitDx=0;exitDy=0;entryX=0;entryY=0.5;entryDx=0;entryDy=0;fontSize=13;endArrow=classicThin;endFill=1;" parent="1" source="bUJTQrn4lE1b8f3pNlAi-12" target="txLwpJOkY1SSK1hxxeXu-38" edge="1">
          <mxGeometry relative="1" as="geometry" />
        </mxCell>
        <mxCell id="bUJTQrn4lE1b8f3pNlAi-12" value="KGE Engine" style="rounded=1;whiteSpace=wrap;html=1;fillColor=none;fontSize=17;labelPosition=center;verticalLabelPosition=bottom;align=center;verticalAlign=top;fontStyle=1" parent="1" vertex="1">
          <mxGeometry x="510" y="390" width="195" height="190" as="geometry" />
        </mxCell>
        <mxCell id="kgU5iQUqB1zsphlfLXJ_-4" style="edgeStyle=orthogonalEdgeStyle;rounded=1;orthogonalLoop=1;jettySize=auto;html=1;exitX=0.5;exitY=1;exitDx=0;exitDy=0;entryX=1;entryY=0.5;entryDx=0;entryDy=0;" edge="1" parent="1" source="bUJTQrn4lE1b8f3pNlAi-14" target="txLwpJOkY1SSK1hxxeXu-1">
          <mxGeometry relative="1" as="geometry" />
        </mxCell>
        <mxCell id="kgU5iQUqB1zsphlfLXJ_-5" style="edgeStyle=orthogonalEdgeStyle;rounded=1;orthogonalLoop=1;jettySize=auto;html=1;exitX=0.5;exitY=1;exitDx=0;exitDy=0;entryX=0.5;entryY=0;entryDx=0;entryDy=0;" edge="1" parent="1" source="bUJTQrn4lE1b8f3pNlAi-14" target="bUJTQrn4lE1b8f3pNlAi-12">
          <mxGeometry relative="1" as="geometry">
            <mxPoint x="610" y="380" as="targetPoint" />
            <Array as="points">
              <mxPoint x="524" y="345" />
              <mxPoint x="608" y="345" />
              <mxPoint x="608" y="380" />
            </Array>
          </mxGeometry>
        </mxCell>
        <mxCell id="bUJTQrn4lE1b8f3pNlAi-14" value="KG" style="aspect=fixed;perimeter=ellipsePerimeter;html=1;align=center;shadow=0;dashed=0;spacingTop=3;image;image=img/lib/active_directory/database.svg;fillColor=none;fontSize=19;fontStyle=1;labelPosition=center;verticalLabelPosition=top;verticalAlign=bottom;" parent="1" vertex="1">
          <mxGeometry x="470" y="230" width="108.1" height="80" as="geometry" />
        </mxCell>
        <mxCell id="kgU5iQUqB1zsphlfLXJ_-7" style="edgeStyle=orthogonalEdgeStyle;rounded=1;orthogonalLoop=1;jettySize=auto;html=1;exitX=0.5;exitY=1;exitDx=0;exitDy=0;" edge="1" parent="1" source="txLwpJOkY1SSK1hxxeXu-1" target="txLwpJOkY1SSK1hxxeXu-7">
          <mxGeometry relative="1" as="geometry" />
        </mxCell>
        <mxCell id="txLwpJOkY1SSK1hxxeXu-1" value="Ontology" style="aspect=fixed;perimeter=ellipsePerimeter;html=1;align=center;shadow=0;dashed=0;spacingTop=3;image;image=img/lib/active_directory/database.svg;fontSize=19;fillColor=none;fontStyle=1;labelBackgroundColor=none;labelPosition=center;verticalLabelPosition=top;verticalAlign=bottom;" parent="1" vertex="1">
          <mxGeometry x="367.43" y="320" width="67.57" height="50" as="geometry" />
        </mxCell>
        <mxCell id="txLwpJOkY1SSK1hxxeXu-53" style="edgeStyle=orthogonalEdgeStyle;rounded=1;orthogonalLoop=1;jettySize=auto;html=1;exitX=0;exitY=0.5;exitDx=0;exitDy=0;entryX=1;entryY=0.5;entryDx=0;entryDy=0;fontSize=13;endArrow=classicThin;endFill=1;" parent="1" source="txLwpJOkY1SSK1hxxeXu-7" target="txLwpJOkY1SSK1hxxeXu-6" edge="1">
          <mxGeometry relative="1" as="geometry" />
        </mxCell>
        <mxCell id="txLwpJOkY1SSK1hxxeXu-7" value="Reasoning Engine" style="rounded=1;whiteSpace=wrap;html=1;fontSize=17;fillColor=none;labelPosition=center;verticalLabelPosition=bottom;align=center;verticalAlign=top;fontStyle=1" parent="1" vertex="1">
          <mxGeometry x="296.22" y="390" width="210" height="190" as="geometry" />
        </mxCell>
        <mxCell id="txLwpJOkY1SSK1hxxeXu-54" value="Add &lt;br&gt;to KG" style="edgeStyle=orthogonalEdgeStyle;rounded=1;orthogonalLoop=1;jettySize=auto;html=1;exitX=0.5;exitY=0;exitDx=0;exitDy=0;entryX=0;entryY=0.5;entryDx=0;entryDy=0;fontSize=10;endArrow=classicThin;endFill=1;labelBackgroundColor=none;" parent="1" source="txLwpJOkY1SSK1hxxeXu-6" target="bUJTQrn4lE1b8f3pNlAi-14" edge="1">
          <mxGeometry x="-0.409" y="-19" relative="1" as="geometry">
            <mxPoint x="1" as="offset" />
          </mxGeometry>
        </mxCell>
        <mxCell id="txLwpJOkY1SSK1hxxeXu-6" value="Inferred &lt;br style=&quot;font-size: 11px;&quot;&gt;triples" style="shape=parallelogram;html=1;strokeWidth=1.5;perimeter=parallelogramPerimeter;whiteSpace=wrap;rounded=1;arcSize=12;size=0.23;fontSize=11;fillColor=none;verticalAlign=middle;align=center;" parent="1" vertex="1">
          <mxGeometry x="200" y="455" width="81" height="60" as="geometry" />
        </mxCell>
        <mxCell id="txLwpJOkY1SSK1hxxeXu-13" value="" style="shape=image;verticalLabelPosition=bottom;verticalAlign=top;imageAspect=0;aspect=fixed;image=data:image/png,UklGRqQoAABXRUJQVlA4TJcoAAAvXsJUEFVhv/7f+C8383fUOL/7N7Pq9h/In5a/oD7nu+9BbNu2bdu2Pytn7n3vz73373vf9+xHu7Y7qO3pip2cVLGtWXlUzqpt27YHwUNO1jR2zpo+i22rtm2bsW2rtm3bthE752Ft2429a8Rm7QZzVm3bdmcmtd1Obdu2rYfhxP5VmUbPap3aHcS7ONEz27ZtzKrd2E6N2E5OzTO1bcSYOGfVdnvqWbEnRWzz1HbwgIIk26Ztq+Y6n014Hfs9MfeaY65zbVvPtm3btm0/irZtq26bZRLm3XOfZGZmZrZiWe/s8+SU+z35dQkMAxBgE9u2bdu2bdvGbdu2bdu2bRtzaUGS7bptes+TbAUYzld44Z53gS8V0gOgAhAH0AGwBOA4wGOA9wDfAAD4f9wATwFuAGwFmARQBuAAIKTkUQBEAMIBFgE8MOwA/AI4CNAEoCuHvNlRA3w12AAMApwHqACQkj0ABABiAU4Yb7khgPEAGlIHgDPAKeM9AH8BJgDISBsAigCrt2K4BOA1QLykARC8z4ZbADYByMuYxzx45rfW5tsE1XvaoQpXZqngoQ3KuXOXsm3Zp/RrTijThiPusbx7t6nk6SWqfteo+ftpmPVqAFbSBYDERox7qvu4S3l2b1PiubcUpvkLIuEWEqLog6+UfvUJlTm/QC0/T2FcA/ADIESyyBrgjHFTiw9TVODgJsUcekFjkknziFIvP+cZjFsA+gCypAoASYCTxsUN3eMSNDrFm3ygStf7uBZAskzZPQBwyNDgG1T4yBqFa/tEe0pJF1xT/WcdDB2AHoAIeQJglqHV+E2Tksy7QXtNxg0jKnhwg3m67J4CsJAlADJdtqrcLClc6yeaQ0q17IJafZmEfpYAt/OUIwD0Af7QMs+oXqG5ZBg1ezcD/TyPWo4A2G0olT63iF0czSnFHHmhZu9noPetAwTKEAAZ9Fa5S/NkWCo0twyD/k6A+wBiEuQRAZ5TqvekwxI0x5Ru9SmGCkCV/ABQbJxq/WWCYgy9oLmm4idXoHerS4+vAIQBnlHKtXMXzVdhW4fU5E0D4wxApewAEG2cnuCzOdOlWXEG/UeQHQC2UEqz8hzNW4HVefwD4wyAk9wAoHTWTjV41qYQ7nSpl51DAZgtNwCkG6eyb9tH85dh3anpuwZOjZUbABY71ebrBEXsGiCAPk7jDICx1HAxTlW/Y2gRSjB9D+WupMZJI8bpx4T47Fp+msLpp2UGAA9KiebeIYRO4vSOMgNAAaUInT8R4zidAD7KDAAjqYP6D1yMMq4/xjiTp8QAMM2puk+6aDFKtugaCoC6/HisatwzBCnhzB0UAFOJAWAddey1IMUZe4IC4CgxACynXm4TpPhT91BaITFsw6k6j34gSEnm30B5KYkBYJxTTV43EORoKacuMQDUGmeWIMaPURcaAxCUGADCKOctxj467bbUOLWS0i8hDrxGr1s4AWyQGdKO0KmyFxcQ4rKME0CXkhkB2OlU8w/TPIkIZd18AAXAU2oAqDPO/LgI1XpYQF1A5cilBgBzSpWu9hGg2GNPGCeA7UpuBOCKuJ9cmQsLUAYpOQBUUyp/aQ7u3nKe1PwNryc5DBXgH1Vfy/uRq3Kzh3ECmKlkRwBmUGrwvE3GTSP4uhbjBND9UtJD0+mvMueqaP1vNIQCME/JjwBMNVTKtP4IjpawHuP0QgA6EkSejaVkXaqlF3CTceOIqtwoMRSAZiVDAhBD/0OaU8kWXMHJ91Xx6iyGAnAtmZIiWZahf3PqXJzwLbnM+QdgK0vmMXp4Q6eix1b5Pu9KMHNPjV61MDT4Qo6SJQEwAPhs6HzAMLw+Rvn2bZGfod0dCa0rdPVbWJrUAY7QbbaZzIvc/YEHdjhH6/atphKnl0mqiWKDPKnTB/htXJJTxU+t8JbYH1GGdSfsg3HLBxaitSbSJnv4RkSaFIArwAfjmmreS9xjUfveYH/LyefcEOOaih5fJcPi6ExDpM3ypBoIcMcwUuPXTSp9dpGybT2gFEsuKdbIM0XqHlDYliEFZtL0ReHah2RTwtl3lGHNCRU4sMFv1vrrBKwZcu9RUyHSnl3sDjFpUgCyACsNv/TqQLVLIhH7CpsH4kqaZJA3xEvVb9tTxlSTxLV/Z9v/l5AoHS6kPmseAB4CpIAhQEJztHsiESeK8GslpeRJJnRzAP1eAbwcwJErlSoizWQU8TiZsPpfWkmUABjmCvDLC4BL1+fcu5mKKKYzikinM/n9RUbJlACIdw1g1UHjANwFGOE6q3IkYiyjiHRmF6uQVXIlAKKnD9ACsAPgEUCvG4AvABc6BZAGoKkYiUSMYhRxXc64ckUlX5LssQF8XykXgMKC7n0Mb4a89k6kaASjiHS1E0o6hUS0MYpI13a54S8l+VQR1a2MItJ1O/9Slk9FXM2Mst3v2XXXkE8VCTUQadC9iHR/l5r/1JRPFQmVMYpIDyLlW0s+VaTUJUQacC8if5RRFdryqYiriFFEep7RPyMD+VS2PJNI/e5lu79I1Dg2lE8VkdKJ1OdeRHppRxjJp4pEncooonhFYmQin4ookonU617E9T7DcCv5VJGoo4nU7V5E+hCpj63lU5FQJJH+uxeRPtqqbeRTkfBwRhHpGym1s3yqSF1hRPrHqAwlF/lUGfrIj0i/3YtI321VbvKpEunbh0i/3ItIPxKVcJdPZWd5M4pIfyJF/vKpMqwqTxL6ySjbPUA+VSKNnYj01b2I9JcoguRT2dkdifSFUcQjRD5VhnlkT6TP7tVp4hEjn4qosotEfHIvIvUkiu9Y+VR2rsyJ9I5Rdq7i5VMlCplFIt661yxJKFE+VYZ5aEqkN+51ApESWfKpIln6S2ZUJOoc+VS7XGo9Ij1llO1VnnwqO3/pEumJe6Uj7gXyqRIW17HdH7tXSuKqlE+VsKVWJ6G7jCIRNfKpMvp7qEZcdxhFIurkU0WqkSqR39LuIfIO+VSF+etNxXa/ySgiDZFPNaA9YJTt3imfqrB5IE8UFxlF3CfIp7KbvuSIdF56FZHOMYqEJsun2g6RjjGKSFPlU9n5lySRjjKKKOankk8ViTjMKCJfWOjqt6B0qjsgEQcZFVEslk9VjHwianu1k1G2fKmEKhLazigSWjcS+VTEtY1RFyafqhi//C8UUaxlVD4p5FMRaTWjbPctEqqIfCWjGlU7+VREsZxRh9pT6VSpiDSXUSO7A/lUtnw2q/GK/wpSO0CWjyHbW1iQRYqMIbnt0M+lLlb6ZH0LW4iIZTYhlFWAN16xI3TUY1IeZZndsMwGLDMyjWX21rK8avdRLJJrPCKW2WsVvirAG68oFAhbyUZaZt3xbrHM9mdARyOUCvTGKxLQl7XMTsUzYpl9tDCXYJJdosaxwhZnvsFofZEr4Buv2AE2xWNJJ+KZscy+xNC3CBIDunw7e5WtaqLtvn7VD5CGnkx0LmmWPK7XIvIZ9bFdKUTyaKuKjgRE4xWW2SZMYmplJkcWNiweEcvsYnogGMeRUGQ+mKzZg9/KB5n18xhfTcl2b7owEnqm8UnZs99r1qPfsBckfGQ+/JMwxhbB1XhFPCYWNo6fBBQqsaS/qGdtkdLjONureo1JRn8P1TycxJ+DxmWWc/L82mnv9pZIrzWHpLPlV+bxsWhHpfnnrAQ2XhFoLKwkHsWyvMNPZK2RWq28sSOMOp9G88slrnB20Uc9NLPxiiBjmW3Ascz+pAcC/oG4Z2ikRnk6Uj7V5TcqneabSImkOENo4xUBxjI7gxO/IyRF3zDT1iMNaYvKg0hx1+PQWkcpsY1XBBfL7BaShRn6htfCDtXm5uV6cbb7qpQ6egluvCKwWJaOIcUyK+MXIlGnaiQijfbwopqtqj1zraOY6MYrgoplaQmOZfZV+QQ7/1JuPRKRLqTAfyuRjmsd1YQ3XhFQLHICTkzKa/wCkW/UOGlmp7CIe1peOsoJb7wiYcMfxsFke1iTuG0UixThE4h7nEYaLf5V0pQ62glvvOITFhVIlEXOxbCwQ8ofrG9ISK1Ev377mVpHvTjZeMUoAHwA8gAaATpTpwYYDdAGUAmQcG1L82lTsbDliH9kd5iejk9IpnEOGnvscpJD1T4grjVekedFZN+arzXuaSzA2gEAWPswtTMgYpltZLHMXiX4obRS/uDuNE79sHsUUxBpr/YDcarxCgAJgCSAjedhcDl8gLEAdr5LKSulasvspysL25o+SUn5g/U1HOktsC+E/J72BXGo8QoAtQ0AfDZeAnAFIBdA2G+pa7eSdXyaZdbv/BExqVzaaKV8AnGt0Tj5YHc/2a4F2h/EmcYrbgpgwVkbr2ksQHYLfJZS6jBjybax5ID7ulOLvpZSKmpx+rZLXDN6z7RHySOhSy2fIonItvMo9NE/9mMjqr0yrDx4mESRS6TGiOrxJLRuXDceV8WRxisyqlffq/EgzQX4aXjkuQC8op+g+IcNLobr0T9nMktPFnMtj54Ec3RRJOroeZCIg4sUgEg3PtZj/ituNF5xWdW8nzCcshWAhUsLdSJRr9A4F6BwOtF97QGRjly+h4ss9XSS17JN3lYdBY1XHHhZNh/SJMNWy09T1PRtg+o/79C6Gr5ocV61+TqBYWczADYhju0epXHyyA6JROzQeKv23KFQB+aWbJZ8xf3GKybyUIaRVp1m6VafUtzJRwrf8Yl2PqWi9r9T4nm3lGPbHpW/PAdrZfEAfgFEhjZtfQCuR/+QUKJGI9K3UadSHDJ9233MXHiK841XFKbliyrf6GFcVet+Qdm27FPkng80M4WUaM4tp+n+DcMeQFhDpGXIo3+uF/s6ru3+Am1cXef1V2FAnd8OP3G98YolVP2O4XqPKR/YPo3MJqfeOtffeLtwZkUapycK6efR28PkrTjGF6hryqTx64vrb/9m77SH1Lf0a06o6ZsZ3B4eoDyMWfPxcj36Z3ZE+o/VyuyU32pBTd/OHDW0hpR25RnaY85hBIYOwABAZFBKj/+FMiCZWFhwLEVyTC3nW8lKY0nZsViKRfax6GvFARHFYo1ytSeqkFaokfZaKd8F0G5oz1Dk3g94LKyUy9ouAnwDMApA15hLTMrTrWTXLLP/Ls9ovFayk52xKLynItTcUuJMXCFt8MWRDrXQ1W9h/wUQMGxapc8v0ibNI8UZf6ImrxvQT3O3AcT8TkzKQyyzb4jEkibzFUtHMybZRMvsO+JZWWbPLNJwi0JZnP4gf4nwcOg/BSLv0Div3R/lu5YG8MTl1hGTaj4pSu87NXrZgn6iAMP9TizFmHhELLO5PF173y2znnhcLLNfMSmPimVWRpTNapQDTII1km0idz6difJfqQ1948G8Nq03Rv8mQPffB5l8LbN38fh0cRWcefu2PL5FYb2kxhms8l8AZjOhVO1Wpr6aX4o78UhOxhmAw8HlpKyUp8V7SrNjsVa+qHnLXluj2F5VKDQSWoJDpM9r9mEAq+jFguS7jERlXHeMoXJHQWXHQcoy2xfvNRZ5dnogyF8rNQqRtiq0FDeOQyLqlP8CMBk2peSLrtB8U4Wrs1AAjgaUHQFR71t8fEzK87iLFPmnROn+Bj0coqVR8tqOD2uJcars+Xk0Z6dIrd2VAXAKJMOMSeXmeB6JpajnzM6/JHuG+wVCAQqPhCbh2O7TlP+6lOOmbmh5Y5p3yrtnC3ph3gLJ3cdzYZn1Jfi+784Xcc3SKFNUHqwapyAfduzGKWfN3Tk0g17OhQASS+GVHx/xMSk/2hGQ5ibTw2HSoUQiTnTAg13sDrE8UHqmfBjADkoxh18QuDBvANHBwzL780/xvGIlG89REiJ/hPvl5/SVBx1CPrIPGwvAd+pGcLUAxR59ggIw3feJTHsTYEa8YHdbprTdo5QXt4xDQpFx2QMs3lM2KBCAm3Eqy6ZDtIi0ilrUxQAXf+jcTCkdygqVJyvE+dk4hHe6LlATKdkKUYGDm1AHBA01wLW3o7yMTGOsqnYUjkdfdx91BKotlXJJhnloGs0AllIL4HTgQpy8cQbAO7hYln+vMSbl2onOL31++MeSsixyo5VsfSr8MyuYk9w0xou3U3lD5Ldw5wHgLjDOJZFQfjQDOOtUhcuzaCFOmAJQFFT+ySLlrM3lEj8xNStD7/e0zJ5PhQ/icQDFcy+NBeIO6fBj63Uq/4FNtJg0xAlgYkAZ6I6DlHLNRmJJu7DP7k65mKrGWKvyKIlGsbOG+7AWdMxpjII03wlgSSBpdkwqyxUrJ2WZrUaKSTaRi22iDoztj+dzP3Bu2YcBSBunLQlS5es9nNoWSE5BsTOAWNI5HMvsEgKv2NmrPHcNiry0ig8DUKeUbOE1glT2wjxOAPuDiGVpicKkI5ZZL26P1BGK0mmiys6jhDG2QB6s7cMAtCgnL8g+Os0hgFjkxz+sUPkn3FPMhYc90KgQ15078OZjcf7KhwHI0asrJUiVrvZxurkAElPL+Qpnh1lQxX0VS6rjAXviyGd6MyXkP54+bCxbcSrDmhMEeQYngBXB4zr7pJAZMEostoDLAxH5IezlgT0pCIfIy/34gQB+Ob2pIMdG7ewMHhZ5rMKKqeVEFCvZSS6uF4lIXxMW1/HiRHHs7C1+7OGpZfEQo7CtQ+h1lg4euaB1FXc0EJ+dUUQ6qnEh4adcjgPCXBwMeRBjFBO/ZJBPIEaTKWMIHPn9sELHMnuDOhuOj5Uk17gQj2Ee9AeHKDb4MYBhxpkidQ8Qotw7d6AAaAeOm1V4uF0G2zVrSZLPgUA/j5S8ADwwBBaJQqRzfmwMlNKtOkWIqt3JUMsHoQKHZXbEg5hk81G6ykfef6pxsd1feJhte8woRPqVXVw2ZtuV4ikiT1zJZiFOVbzSR4RTnKfTZQSPNXowf5TmcjoIm6iyw06jZrtvwUP+InfwwkT1QdgAx6hriRWpa4AA5dqxi3ECyAweVrJFHlwdSvokU16nkNhZwzUytrwY7eF47S6Y/scyQ0KJ4sT5hXkr795t+MuooeLpnBZy6sHjIzyIqZU1KKfPS4qz4DsDiIpEdOFsm8stwPiOKQB0O9Xy4xTT4q5fxglgvQpSFtaOEosZcDt9N1FdtthvItKN2iFl6FUETsPBEPBhin6rRq6dtyVsmQIQFqj2G2VH6Kjzu/jAFDUyRD4De6Vz5A4sUipfPzYNStaD4qzCR9egV28kbaCySLNQdoAsz89I5oiUEnsPXj3DWasfUwBHjTPVeljQJq5KOOeO/CjvqgKVha3AuNWT4nHhJ3oHZqc1LvfpaDGC03xH9bPzL2U/1i4j4gTxInd/8Mf0vA1pg5Vl+TTGbXO9bN3MtNb8ThLfG+ylq/2YahtdZduyDz/DOlPqmW4FIEgFkW/3AHWmkmV2hasOfJVGhkS0JYaYDBC5/6p+4/FjTT9uunablza9k6EsSwUSC9uN94PxqCfJ95LB7VwkdqdUbgoR9O734/NjagEuy1pW9q378FGE9p88g6H8N4ByMNkNvJhaGY07h4TzBc+bhf07+do3jBFRVGtkbFeKH1Nu63ZVsRMrPAkHxRp9poYvWri8ITvtUsGkboUCYbQPQdkdzjoQiTirkXkd1D3idBrpakkVln7sUmryqvnSbYasQXl14GXecEiTDK0fKqDEW5gL1s6AyFuiZMl7spkM89C0flprXmfzLh/9X9iZ+rC/KlL3YKAGL9oYOsvJ/Rk9Kd7UA89gXNISFVhiSUOxLFIE6inW7Rq5T5XVaqwXbydCpD62RvdM8fuR8q3luyIRgZ3WF9Me45LnLvvWfQrbOgStuOOPfKBxy7LSBhcL+9AnJCulPSiW5b2Ku+w2rJEhrsuY6a8cd8CBu3qdnStznzWlF9daF33gldq5z05akWNrTNMuDsLWS7/6hKrdzhj3bSwquMTHYkU4ZxCPElPLzQKmKd3989XITAIzgWxKdL34X/mqwTs7ESlCx0+qcdcw7qnJ6waVOLXMS2br9i6ObP0EJ3bstf46CWOe5VNugQoyltnnx8XYERC9WZyOiJhkeZlYKYeJauIDHyLt7rp/mv6S6VfRKnl6CcNMfhutyo2Svo3goUZQpat9qnHPaIhhZoQAKUoFmvgWY66W39t4FMvsuhIBDAH0/2wb/rOIG3Csn4eqX+dz9ElrJtIN7ZJSLLnkHQyvAJztnAo68VaybQlAjCkWa4tH/r4Q6kRfHPuP6qEijvOx3Tu1l8ySSJuTJ2G74abOUZw4e4cojBFukboGVPlG7y0fNwRQk1ZFN8vsu2X21GsGGjcu/GSZ7U9AoeJuu2YtSR56PI5l1t1RMVRq7bEXSNeX5yIRJ7S3LHLDxH3CaOc0c+cVrCPlW6t3DzfYr0p8IpQwRPpPpKeeczhidIBIW7W74+/pHQFc9u6s93wKSkUVEfn2OHJdsQOJqZU1faJNwEo5L5b0Mh59hRVBwBD4XPT1VCIKB8XMRxDps+YRIvUQ6dvV8j9DSUR6J0Sqlmt3f5r4hJkWAIQBHNyKJ6t7sUNWKmB4u+ZmTCrLE3xXxsSQ3NLHnGJJ4RZWGUta+5b4CbMsCnNR1OzmopEZ83YQ7QWl03ziVybBeh165s5nA2ANMAngGdZM5gBQ3COlAougP0FhVFM1NiS0RLEzLz+3TNbhdK5XLgZwARgKcOCgmQAeLQsgP9Md56FC3R5XIIVvBewwMOe4+beJp3M3F+aAYywAlgBxAI2dmgrAznsGOD2HjTzTSB8ZwB9AVSmlwgYrWZMSKaMqtPPCygvzQlpEmunXMqw8OHPGuNT7slGEEI94UkKpvcF33pECMTAnEW0pfVmkuCvjVZ8TIIpkFbocSHMVP3wbldaTUojYrhQi/fNhpApLIn1lXu04TLDMui2zH3wmArGwICXa9NNgnQBqdV56txjfFSnfWrb7C+YNJ4cKltnrGMooy2yQg988KyWcejiNzQOgmqtvK5Ev9Fnrs93vaXeRiHkqZFBWsvHe3apFLlacce7aKmuFSvL3FSbz4f5s9Emyau3Odl+fXeiQHgj01qtpx1Ikqzhh5jeusZkXshmUxddPCCL1rfVElYo6KQ5VuyPS0dqp0EGlB4If4o1l9iB9zElx5uHgZPw+zE/FDqSIa1Fy7t6XKMYlPp4j+qT6MNbxmf1RIYRSBVpm3R56p+h7bS+EKADfXt61JtLtO0AftPUuRHrN9cePbHyJn3406jzrkN7a/lUPJ1QGdK2Hj2WZ7ctSqbjjZ+9Tu4TXILwDUyXSZhL6ycf5Emnvu2V6oYKogj0FfjFdVz7nQEQkJuV5fFsjSvC9OWKemoXdUc7seYsRf9i6TS3x2UvepCbSN0w8nVJ0bmnQeUlPQ6q5DZKE7qbzJs1//HyGPvLLW3lKo9KISG7ckIjslIzT9a5JhZpkE5OspcXjdXuF7WZjSTP3fMdBSvlF/iuRvn1a/TAHsZh0bIvZ8LZt96HnFuVN2d9dcsbg9axU6MlUMqCll+C7fmgsKfWSrJSqLynff9nhn8y4UCCs/CcpZte767VdKYdhS6Ukoib1eCKKwuSREglndYlbHImK/uTGOD/mBKTT+uh8ahrGSTFvIZu2hMV1jle7m5ls2gb0+8x7KpBMkrDW7SFZdpJJClafBf9RO8m0ZXdhjG2O/6UkkxWydkH9rGzafo29C0oyGQ9ju1qiyk42bXfC2gXVO9m0PXoejF1QrZdN27fkxdgFNXDZtN1Dw5l9EkgmMyXSQ8Zmy2fLpu2GiXSVsUUUa7OTTPJmTTb+uXnLpl1QRNrEujBH6NoFlbZggOTu/TTAXoAjdQe4WffWdKn2GwDIqfOlhAqYHoaJ/NHPqlDlNu4fYN8I2VccXfn5APiPJUyYFOuqCbtcaj0VolzDZNpnsPlvgDkAzqGB7VUFY7txUoVlmPqEZwCsAeg1nvKOJ502FPitE2DsgipAhSZZbcR4D8C9RoYAtntApxmX9yehSBWWLA1gylkbLgHY08CgdziMll5T7k1o2p4N4IHhlYMGKA12doTRkLQ7270pNG0ArTMxLMup3rMug6jU2SUqcnSNCh7a4H7+4omq/bCglp+mYP8GwOY8A9z0WYuc0ZPQ9HE3AFhi3FPz99NU8vQS2+p1Ia69Rm2pQofXqcHzNsY9AFdHEdjWzOqi82FShaXHmINJjG6HpQslXXDNZ2PmmP7XCh7cwH1aun2eUEC7A9Zcq40aSUjaLsV1y+nuXhbftU9ZNh5SkzcNjEsA3mbl++LEDFhftZ2w9PbgvJxx8YFF6X3HW1tI5dmzTZMMnScH0AtgqVh3BlXHToSn92Wc9g6lXHKB9ppsn8/lOT48gETwOkFWY4CjDEvbuxraLfH4xAh89mkaOgArA5edvYp12Vg7V+ah6Q2m+lraE32f5pKybdlnnvTzrHfAOox0jMmeO6TCEoCD9D+lh11fbh+/C7oAvt5UoJobaxfUikLTBpBDb4OYiOaWe6SfKsC6IDWlF2fsghp1aNou5b4pgxyW5pic6QLwCE6LYq0cSiTUoEITgBrj1KRea54ybhxR7UcFlC75ObEzYNnuY8LTBiAG8IZSzh278H6f9bMO2K/WzOpZeK2pwhOADPozijMR7vfnFqzffQfHod0R+a7a7oIKT+ZAKeXSSzRvW6/Fx2nonnQDBp/FGrnSJCFq++aOUU2TJdXcU/59mwToB6Qi1fJZ0y1tUIUoAFUu73kwf0XpeYd60e3xA9BgtbtphKt3nAxgK/UohWv9RAsI9eYHvxCAqF8Ttlxk99nOcHWS7g0x79BNyK01t8u3CZoBq8CPDWfvJvvYhShq/zuUpw44tntUcsa8zderwhWAOMqEtZA8nRPAsmAzJ8YMWOkiUaeqABIVC8mQ9WDEmC/VSlmgKYhIX5n3fB62ACwSeps1ekROAB+CzCi7r93NQ4UubXOq8vUegpR54xHUoh8E5wxYm1Xhy+c7fZIrEZ+6nuB6qCSsBoVJxI4OhDDvSL1R8YKcLqV4w4+ZGwyqXVAjY/bFp0IYgGNOjyFIqZZdQH+8Kk7gAIl84fg+NYB2QW2b3RdfGAOwy6nyl+cQpAxrT6CaVHf2r7vNfH79Y1MFCtt9GrsvvlDmtJ2aKUjZth5A3aGN656aNLZ7U24p/Bef++hp/aJUOJOr07EJ8tvUJ5hAM1K/VS+eeMRsMACML6WXvvjC2IEa5yBG1W5lnOarEQmAQeDdsXZBTVKFNQBBlBLPuUWIiayTetPiNSL+Pwg8k/ox++ILbQA06BsoE/q5Uyn9mhO0l8zlc+cxydr58QxYrGYomqpCXH7LqVoPCoQo9+4dKBvT7Pj+IPBEt6ndPaUKc1pinOm1ACQEtZZYT6cR8ftB4EzHHCaboThpSu4CP1E2FTu+gkbEHweBXu7adVXMvvjCnWxWRy0bVmFbhwg7DMhU9NhKI4lou8i8NCv+PgjMm0QcZPfFF/ICsMA4U+6dO+Dhb1rEOBUwlsTXCizIlkpt91Xuy4zm64PA7L6U1Rfff6mwp86Uda6Xs6TNpIzU5UrNtislIs1clbM5X38fBO4tuy++8BeAk0bMWSRjpJ7tQkbBmLlzkotfdae1vw0CxwJgMAaAzBkANHaviTMoCCAsqyPHmEcIbYYCINDQr5txNe5mUACmYo7O6t2XXGQanxoEApjUG2Bp/mft3p09wCOAVTNoBWsJhkNpMxStoS/Nc94cLaFzxulrcdet86lB4Gd3L3+Dy5PnCuDdApcVjj0BZl984VDB9H9JavKmQdEG3uC3G+oovd1EmS8NAtN27Z6NlwDcmMGlOGfAItL/kNoXH8AYQ6WGL1q8LK+tchfnMRSAy94nLr3hSc7jc31gEJj2XBprvAbgXfOPPPGdCecVVvviuxSAWy6fvgU+d6dbuNZPqnKzxFAA/uE+Phw+NAgE8JuP4ZHmAETvfohthiKr1bncO9mbczDh6j3rYmhfqVDxMAhccpQOArPJdSuGUyp3af73OYTYZigAYjtm6FTqzCJedxsUeI85GdrHKFQ8DwLTRd0g8NneymCyzvNqiMGkRi9bLCfENkOxgK24zQdyjxPxdDvNf2ZcArAtmUKFyyAwj2gaBAKkLIS1/KVVvtGj3Lt2OPxBPaPONJk0jyjmyAulWHTJ/Q+C9XAbKsO6E0JsMxSvZdwyyDF+H3YPwUUl/sCpuADYK/C0yhQf++v55BAlg8Duuf+whlTsxAolmXcD+1/YApfTg+d2/43y798kKdUMRRj90C4N27jlvCpybI0SzbmlELZeH+4TMCYqRTZUwXkQSELP4v4gcAPGLU/Qr8lgF5ZgJI9m3DL6A9daH2A4/UgVdI217M4NOcqDv6fXdv5XJul6lzP1Sp5e4tcMIwDjWqBQ8ZtBIECD4TTSOPDTdczA6nJE+QN8qgqnAbBzvpzOmgy3V8iluh0hQEZcOqwrDg8CAXKMi5y9zkTRprubp6FT1s0H3HjCGFuosJpLAZjQMdF3r+gzg8CjPw9aM05Xe88J1sdl4vIKH16vUSE27ao7F/995mnjaI9ncW0Q+MDfbyg1fNmCzwHmp0gtRJsxAB9HEWYrLUCe9/02B70mABmFjd8MAlvi8jmAKWLnAM0nz3hL9BMF2KpCbdJ27Zi97RTcAIAC+hh73xkE7nrHKN3ht0I05zAwQwUgToXcANhfzfcjvecbfXcyhY7vDALT0rtv13lZml+K1DWgPhSAV5eiQm8KBqh88Mayvu9C9h3A+8ij7Wh7sbtHczGU0+V7zhV959DNV6E42RQMEDeDpwYYnjr77m3hXZfn9X/FPjMIZHyds+ab8u3bgj4t5lJUZrZEy+5R+EK0cfrjrXPWpho8a2OcOXOVWTspPvZLLpLrILCyFxd6Kf0Sdp3HlavMkImTx6qdA9VDyJafhLuk9AP+vcpMG+8nDvD7kE1lofmndKtOwS/QcWbuQWCnvemCwGVf2uQ6na5LZZaN+BMHkj63U5Wu9dEi8hdOAL09yoz9xsdxPoszW+NU1i0HCFGa5WcYZwBC2V33yoRB4OFTrkLoKnIC1KtQHP+80Jydq/jOu691wf1T/Y8VInT2wnGwb4FJJgwCM3d6NC1Gla73cQI4jngXCmXBILD7WlfxSh+x83/1gFr6JcWORBgEVv9p571TxU8sI0jfnQBeKIkRgNtOxynIwVMta8kMzaFWC02Q66IOBpYZqOUIOU1BDpfqpzM4he7JMa/dCeCBzACwg3p/LwSp7Pl5nAAuygy5U6ceC0JdTvS0ZYYZGGdaLcST5EQdCSQztIsyQSFOkF6vPZmhR2ct8vXcvlMCtVHm8Na2w3kNRuD0cgCPldQAMJxuFFCA4k8/QD3jccgNK6ZU5WaJAI9BeSUlNwJw3ThTgul7uLus/Kh9BWORHPpBvw0mBy5o0b1NaiU5ACgA/KSn/+JsrtSz3ePPVrIja6IvGrpergrX+smvUX5aSQ9ToJen6kx5niCedL7y5GulmmioVOLUMkn595drzkdJEMlc5sf67QPn5f4NZXF5KhmS5bncIGBFjq1RCJ/dBJ/isuCE363kSI7Y0Hn7Z+RxRbE5GhrAeCVLArDS0Nlyiefd4lm28za0Ex+LNJEnwDlDJ78eFL79E28zkpdv7xa1/jqBoW1mqEqe5NTn4zo1Uzm273EOaJO51D82LgF4DKChZEoAlB/efQ7J0Rd38pEDR83puwr3uSS//wKUXEmPXs64Z1wVOrROu//D1d1+54gGadwDcLpNSrZkLLmzZ/A+r2rcNSp5Zon76fuP9b0Hf1G1O5k/NswsC0BMSZj0oQDDKyO8EiVn0qbab4UPgB2HrKRNAJzWykH+ABFK6gQgFODgVry5LoCEtEr2pOBcC0AD+AywEMBVSaGkvSOAyVewx0zDnk+ufUimJFKW1i6AktQf8o51//7Gvtp8ruuXDgCgHCAoaxVUUQA=;fillStyle=solid;strokeColor=#999999;fontSize=10;fillColor=#B3B3B3;gradientColor=none;" parent="1" vertex="1">
          <mxGeometry x="612.5899999999999" y="390" width="71.41" height="40" as="geometry" />
        </mxCell>
        <mxCell id="txLwpJOkY1SSK1hxxeXu-58" value="Rules Linearisation" style="edgeStyle=orthogonalEdgeStyle;rounded=1;orthogonalLoop=1;jettySize=auto;html=1;exitX=0.5;exitY=1;exitDx=0;exitDy=0;entryX=0.5;entryY=0;entryDx=0;entryDy=0;labelBackgroundColor=none;fontSize=9;endArrow=classicThin;endFill=1;dashed=1;" parent="1" source="txLwpJOkY1SSK1hxxeXu-15" target="txLwpJOkY1SSK1hxxeXu-16" edge="1">
          <mxGeometry relative="1" as="geometry" />
        </mxCell>
        <mxCell id="txLwpJOkY1SSK1hxxeXu-15" value="Rules" style="shape=image;verticalLabelPosition=top;labelBackgroundColor=default;verticalAlign=bottom;aspect=fixed;imageAspect=0;image=data:image/png,iVBORw0KGgoAAAANSUhEUgAAAMgAAADICAYAAACtWK6eAAAABHNCSVQICAgIfAhkiAAAAAlwSFlzAAALEwAACxMBAJqcGAAADEJJREFUeJzt3W2MHVUdx/GvW0ui9MGUGAM+0FYh8lCjb6RuMVVEISq8Q1NQKnYDsYbGEhIrbYFI0vaFQZNCacvGBkrLQyMCjQmJ1ZSU+EIaASm2WKJoxSq0241N6balu77432t31zln7t175p6ZM79PMknvzp07/925v87MmTlzQEREREREREREREQq7D2xC6i5GcDVQC9wQeM1wGHgz8DvgGeBwSjViUTyKeBR4AQwkjMNAY8AF0epVKSL3g/cB5wmPxjjp3eBnwLv63rVIl0wC3iF9oMxfnoJ+GiXaxcp1MeBf9B5OJrT34CPdfU3ECnINOyEO1Q4mtOrwJQu/h4ihdiM/4t+BFgHXAd8tjFdBzyAtV75lu3v4u8hEtwX8H/BfwZM9Sw/HTup931GbzGlixTvObK/1KeBhW18ziJg2PFZvw5Yr0jXXIz7f/07J/B593g+74IA9UoGXUn3mwx8sTFdAnwIOIvW/m4zyG6O3Y+F5902azkL2AvMzpj3d+xcJs8IdnHy39hJ/m+BnROoRWpuGnA38BbhW5+WdFDX0gLq+RewErWISYu+Chwk/BexOX2ig9o+WWBdbwJXdVCb1MCPcJ8Mh5jeAXo6qG8ScLzA+k4Dt3VQnyRsGcV98ZrTlgB1Pt6FOpcGqFMScjXF7jlGsJPhcwLU+kHg+YJrPQ1cEaDWylMrFpwN7AM+4nnPTuAxYA9wbALrGATemMByPjOBD0xgubOx2+0XAJ/3vO8N4CLsdnupsR/i/p/0LWzvkqqvA4fQoZY49AAHyP5yHMZajVJ3Ke57vv4Ssa5SKOsh1hTgZmwXX2SNU4FvOOZdj/X6q4PvAJsc8x5jYoeVrRoG/gRsxFr5JMcU4I8U31Ljm16jvP95FKEH+Ctx/+YvYj0uS6WTNvmi3AzMiVzDdmyj1cUw9jvH9Gngu5Fr+D9lDMhFsQsAXo9dQAT7YxdACR9MUcaAlOHQpo43752KXQAl/D6WriCRMnlv7ALa8BB2BTmkO8m+JX0hMDfwusrO1aT9HPZcrpAWApcH/sza6Ce7laOvgHW95FiXpjPT+gn/dd1c27iIdXVEh1giHnUPSB1PxttVhpP3aOoekNDnNCnaFbuAmOoekLuB3bGLKLGHgG2xi4ipSq1YRRjEWqu+DHyYclyDKYNh7Nb+38cuJLa6BwSsc9CzsYuQcqr7IZaIlwIi4qGAiHgoICIeCoiIhwIi4qGAiHgoICIeCoiIhwIi4qGAiHgoICIeCoiIhwIi4qGAiHgoICIeCoiIh3oUFutSrEtvqn/nQeBXwNHYhRQl1Q0X2gLg29gedyvwcAvLLAfuIf1+7geBK7ExPpKjgORbBqwe9foq4DxgjWeZS6lHOADOBR4A5scupAg6B/Gbi33Rx7s9Z7nLqEc4mj4Xu4CiKCBuU7FxzbP2smfnLPta+HJKbV/sAoqigLjdD8x2zHs6Z9nnsXOVOjhBwqPh6hwkW/OkPMshWvtCfAsb1uxy0v07DwCbgb2xCylKqhuuEzOxk06XRVjLTZ4RbITYxwLUJJHoEGusSdhgMdMd89cDz3SvHIkt9T3IDOAa7Iu/HXg75/0rgHmOefuA28KVJlWQckAuw67yntN4PQBcAbzseH8vsNIx7yR2XnI8ZIFSfikfYvVzJhxge5MnyG6inYY16U5yfNYd2HBtUjOpBmQydjV7vAuBtRk/X4ednGfZAdwbpiypmlQDcgrY75h3E/DNUa9vaExZDmMjso6EK02qJNWAgN1D5bIBOB+Yhe09XBYB/wxZlFRLygF5Evi5Y9507Er3Fuz8I8sG8q+YS+JSDgjAEtyHWr24b7JTk64A6QfkGHZ+0c5QxieB64F3CqlIKiXl6yBNLwB3AatafP9y4MVA665aj8IRrONTrYd+Lrt+bEONn/o6+MweYKfjc0dPOwjXj2M5Nlps3jrLOG2l2KML1zZeX+A6JyT1Q6ymYezu3COe9xwGbiRMk27VexQuYGxTeG3VJSAAB4BbPPP7CNekm0KPwmR7CbajTgEB2AZsyvj5RuCpgOtJoUdhsr0E21G3gAAsxvp7HMFuYLwPuDXwOqreo3A37mtItVKV1pWQhrCQLC54PVXsUTgM7MHCMRS5llKoyoarIvUoTEAdD7FEWqaAiHgoICIeCoiIhwIi4qGAiHgoICIeCoiIhwIi4qGAiHgoICIeCoiIhwIi4qGAiHgoICIeCoiIhzpMFatqz8Vq1yA2BsvR2IUUJdUNF1pzUM8erK/5wy0ss5xqP/qnVQeBK7EHziVHAcm3DFg96vVVwHnAGs8yVX8uVjvOxR6CMT92IUXQOYjfXOyLPt7tOcul8FysdiT7DC0FxG0qNjxC1l42axi30VJ4LlY7kn2GlgLidj8w2zFve86yVX8uVjtOAEtjF1EUnYNka56UZxmgtS9EFZ+L1a4BYDOwN3YhRUl1w3ViJnbS6dIHvNnC5+i5WAnQIdZYk4BHsCHasjwI/LJ75Uhsqe9BZgDXYF/87cDbOe9fAcxzzHsN+EG40qQKUg7IZdhV3nMarweAK4CXHe/vBVY65mlYtppK+RCrnzPhANubPEF2E+00rEl3kuOzVgB/CFqdVEKqAZmMXc0e70JgbcbP12En51l+A/wkTFlSNakG5BTu4Z9vYuzwYjc0piwhh2WTCko1IGD3ULlsAM4HZmF7D5eQw7JJBaUckCdxj5I0HbvSvQU7/8jyIGGHZZMKSjkgAEtwH2r14r7JTk26AqQfkGPY+cWpNpZRk678T8rXQZpeAO4CVrX4/pBNulXrUTiCdXzaFbsQcevHNtT4qa+Dz+wBdjo+d/S0g3D9OJZjg2LmrbOM01aKPbpwbeP1Ba5zQlI/xGoaxu7OPeJ5T8gm3ar3KFzA2Kbw2qpLQAAOALd45ods0k2hR2GyvQTbUaeAAGwDNmX8fCNhm3RT6FGYbC/BdtQtIACLsWPdo8B/sJ6DtwZeR9V7FO7GfQ2pVqrSuhLSEPC9xlSkKvYoHAb2YOEYilxLKVRlw1WRehQmoI6HWCItU0BEPBQQEQ8FRMRDARHxUEBEPBQQEQ8FRMRDARHxUEBEPBQQEQ8FRMRDARHxUEBEPBQQEQ8FRMRDHaaKNQd7LpZrWIWqG8TGYDkau5CiKCCtuR57bFAP9jzfh1tYZgXwY6r/dJM8B4ErsQfOJUcBybcMWD3q9VeA84A1nmXmUI9wAJyLDXo6P3YhRdA5iN9c7AFw492es1wKz8VqR7LP0FJA3KZih1NZe9msYdxGS+G5WO1I9hlaCojb/cBsx7ync5bdBTwatpzSOgEsjV1EUXQOkm0BdlKe5RCtfSGaz8WaR7p/5wFgM7A3diFFSXXDdWImdtLpsghruckzjO1F6rInSZIOscaaBDyCDdGWZT3wTPfKkdhS34PMAK7FvvjPAG/nvH8FdkiUZR9wW7jSpApSDshc7CrvjMbrAeBLwEuO9/cCKx3zTmLnJcdDFijll/IhVj9nwkHj34+T3UQ7DWvSdd0ScgfuYEnCUg3IZOCSjJ9fCKzN+Pk67OQ8yw7g3jBlSdWkGpBTwOuOeTcxdnixGxpTlsPAQsIMyyYVlGpAwO6hctkAnA/MwvYeLosINyybVFDKAfkF7lGSpmMjQG3Bzj+ybCD/irkkLuWAACwB9jvm9eK+yU5NugKkH5Bj2PnFqTaWOYn1/3inkIqkUlK+DtL0AnAXsKrF9y8HXgy07qr1KBzBOj7til2IuPVjG2r81NfBZ/YAOx2fO3raQbh+HCuw+7Hy1lnGaSvFHl24tvH6Atc5IakfYjUNY3fnHvG85zBwI2GadKveo3ABY5vCa6suAQE4ANzimd9HuCbdFHoUJttLsB11CgjANmBTxs83Ak8FXE8KPQqT7SXYjroFBGAxdnHwCHYD41rg1sDrqHqPwt24ryHVSh1ascYbAr7fmIpUxR6Fw8AeLBxDkWsphapsuCpSj8IE1PEQS6RlCoiIhwIi4qGAiHgoICIeCoiIhwIi4qGAiHgoICIeCoiIhwIi4qGAiHgoICIeCoiIhwIi4qGAiHgoICIeCoiIhwIi4qGAiHhU6aENDzYmka7RHkTEQwER8ShjQAZjFyDRDMQuYLwyPmB5Dvboy7NiFyJddQL4DLA3diGjlXEP8gpwLfAqGl22Dkawbf41ShYOEREREREREREREam8/wInNIRprFbyHwAAAABJRU5ErkJggg==;labelPosition=center;align=center;" parent="1" vertex="1">
          <mxGeometry x="383" y="414" width="44" height="44" as="geometry" />
        </mxCell>
        <mxCell id="txLwpJOkY1SSK1hxxeXu-59" style="edgeStyle=orthogonalEdgeStyle;rounded=1;orthogonalLoop=1;jettySize=auto;html=1;exitX=0;exitY=0.5;exitDx=0;exitDy=0;dashed=1;labelBackgroundColor=none;fontSize=9;endArrow=none;endFill=0;entryX=0;entryY=0.5;entryDx=0;entryDy=0;" parent="1" source="txLwpJOkY1SSK1hxxeXu-16" target="txLwpJOkY1SSK1hxxeXu-7" edge="1">
          <mxGeometry relative="1" as="geometry">
            <mxPoint x="290" y="485" as="targetPoint" />
            <Array as="points">
              <mxPoint x="310" y="533" />
              <mxPoint x="310" y="485" />
            </Array>
          </mxGeometry>
        </mxCell>
        <mxCell id="txLwpJOkY1SSK1hxxeXu-16" value="Inference &amp;nbsp;Engine" style="rounded=1;whiteSpace=wrap;html=1;fillStyle=solid;strokeColor=#999999;fontSize=10;fillColor=#B3B3B3;gradientColor=none;" parent="1" vertex="1">
          <mxGeometry x="330" y="512.5" width="150" height="40" as="geometry" />
        </mxCell>
        <mxCell id="txLwpJOkY1SSK1hxxeXu-60" style="edgeStyle=orthogonalEdgeStyle;rounded=1;orthogonalLoop=1;jettySize=auto;html=1;entryX=0.5;entryY=0;entryDx=0;entryDy=0;dashed=1;labelBackgroundColor=none;fontSize=9;endArrow=classicThin;endFill=1;" parent="1" target="txLwpJOkY1SSK1hxxeXu-27" edge="1">
          <mxGeometry relative="1" as="geometry">
            <mxPoint x="692" y="470" as="sourcePoint" />
          </mxGeometry>
        </mxCell>
        <mxCell id="txLwpJOkY1SSK1hxxeXu-25" value="KGE Training" style="rounded=1;whiteSpace=wrap;html=1;fillStyle=solid;strokeColor=#999999;fontSize=10;fillColor=#B3B3B3;gradientColor=none;" parent="1" vertex="1">
          <mxGeometry x="515.5" y="440" width="184" height="36" as="geometry" />
        </mxCell>
        <mxCell id="txLwpJOkY1SSK1hxxeXu-61" style="edgeStyle=orthogonalEdgeStyle;rounded=1;orthogonalLoop=1;jettySize=auto;html=1;exitX=1;exitY=0.5;exitDx=0;exitDy=0;entryX=0;entryY=0.5;entryDx=0;entryDy=0;dashed=1;labelBackgroundColor=none;fontSize=9;endArrow=classicThin;endFill=1;" parent="1" source="txLwpJOkY1SSK1hxxeXu-26" target="txLwpJOkY1SSK1hxxeXu-27" edge="1">
          <mxGeometry relative="1" as="geometry" />
        </mxCell>
        <mxCell id="txLwpJOkY1SSK1hxxeXu-26" value="Generator" style="rounded=1;whiteSpace=wrap;html=1;fillStyle=solid;strokeColor=#999999;fontSize=10;fillColor=#B3B3B3;gradientColor=none;" parent="1" vertex="1">
          <mxGeometry x="515.5" y="500" width="74" height="36" as="geometry" />
        </mxCell>
        <mxCell id="txLwpJOkY1SSK1hxxeXu-64" style="edgeStyle=orthogonalEdgeStyle;rounded=1;orthogonalLoop=1;jettySize=auto;html=1;exitX=1;exitY=0.5;exitDx=0;exitDy=0;dashed=1;labelBackgroundColor=none;fontSize=11;endArrow=none;endFill=0;" parent="1" source="txLwpJOkY1SSK1hxxeXu-27" edge="1">
          <mxGeometry relative="1" as="geometry">
            <mxPoint x="710" y="485" as="targetPoint" />
            <Array as="points">
              <mxPoint x="690" y="518" />
              <mxPoint x="690" y="485" />
              <mxPoint x="710" y="485" />
            </Array>
          </mxGeometry>
        </mxCell>
        <mxCell id="txLwpJOkY1SSK1hxxeXu-27" value="Evaluator" style="rounded=1;whiteSpace=wrap;html=1;fillStyle=solid;strokeColor=#999999;fontSize=10;fillColor=#B3B3B3;gradientColor=none;" parent="1" vertex="1">
          <mxGeometry x="610" y="500" width="74" height="36" as="geometry" />
        </mxCell>
        <mxCell id="txLwpJOkY1SSK1hxxeXu-56" value="Add&lt;br&gt;&amp;nbsp;to&amp;nbsp;KG" style="edgeStyle=orthogonalEdgeStyle;rounded=1;orthogonalLoop=1;jettySize=auto;html=1;exitX=0.5;exitY=0;exitDx=0;exitDy=0;entryX=1;entryY=0.5;entryDx=0;entryDy=0;fontSize=10;endArrow=classicThin;endFill=1;labelBackgroundColor=none;" parent="1" source="txLwpJOkY1SSK1hxxeXu-38" target="bUJTQrn4lE1b8f3pNlAi-14" edge="1">
          <mxGeometry x="-0.3217" y="25" relative="1" as="geometry">
            <mxPoint y="1" as="offset" />
          </mxGeometry>
        </mxCell>
        <mxCell id="txLwpJOkY1SSK1hxxeXu-57" value="No triples accepted" style="edgeStyle=orthogonalEdgeStyle;rounded=1;orthogonalLoop=1;jettySize=auto;html=1;exitX=0.5;exitY=1;exitDx=0;exitDy=0;entryX=0.5;entryY=0;entryDx=0;entryDy=0;fontSize=10;endArrow=classicThin;endFill=1;labelPosition=center;verticalLabelPosition=middle;align=center;verticalAlign=middle;labelBackgroundColor=none;" parent="1" source="txLwpJOkY1SSK1hxxeXu-38" target="txLwpJOkY1SSK1hxxeXu-48" edge="1">
          <mxGeometry relative="1" as="geometry" />
        </mxCell>
        <mxCell id="txLwpJOkY1SSK1hxxeXu-38" value="Accepted &lt;br style=&quot;font-size: 11px;&quot;&gt;triples" style="shape=parallelogram;html=1;strokeWidth=1.5;perimeter=parallelogramPerimeter;whiteSpace=wrap;rounded=1;arcSize=12;size=0.23;fontSize=11;fillColor=none;" parent="1" vertex="1">
          <mxGeometry x="720" y="457.5" width="90" height="55" as="geometry" />
        </mxCell>
        <mxCell id="txLwpJOkY1SSK1hxxeXu-48" value="End State" style="ellipse;html=1;shape=endState;fillColor=#000000;strokeColor=#ff0000;labelBackgroundColor=none;fillStyle=solid;strokeWidth=1.5;fontSize=13;labelPosition=center;verticalLabelPosition=bottom;align=center;verticalAlign=top;fontStyle=1" parent="1" vertex="1">
          <mxGeometry x="740" y="552.5" width="50" height="50" as="geometry" />
        </mxCell>
      </root>
    </mxGraphModel>
  </diagram>
</mxfile>
